<svg width="33" height="41" viewBox="0 0 33 41" fill="none" xmlns="http://www.w3.org/2000/svg">
<path d="M32.8471 32.225L28.8063 12.4773C28.3703 10.3482 26.5222 8.80343 24.4123 8.80343H24.2406V7.97939C24.2406 3.57962 20.7687 0 16.5 0C12.2319 0 8.75937 3.57962 8.75937 7.97939V8.80343H8.58709C6.47714 8.80343 4.62906 10.3482 4.19305 12.4773L0.153564 32.225C-0.287469 34.38 0.231879 36.597 1.57752 38.3077C2.92381 40.019 4.92161 41 7.0585 41H25.9421C28.0784 41 30.0756 40.019 31.4212 38.309C32.7681 36.5989 33.2868 34.3813 32.8471 32.225ZM12.6084 7.97939C12.6084 5.76756 14.3543 3.96774 16.5 3.96774C18.6463 3.96774 20.3916 5.76756 20.3916 7.97939V8.80343H12.6084V7.97939ZM28.4317 35.8091C27.8203 36.5867 26.9131 37.0323 25.9421 37.0323H7.0585C6.08685 37.0323 5.1791 36.586 4.56704 35.8085C3.95561 35.031 3.71944 34.0235 3.91991 33.0439L7.95938 13.2962C8.0214 12.992 8.28576 12.7712 8.5871 12.7712H8.75938V15.8238C8.75938 16.9197 9.62078 17.8077 10.6839 17.8077C11.747 17.8077 12.6084 16.9197 12.6084 15.8238V12.7712H20.3916V15.8238C20.3916 16.9197 21.2537 17.8077 22.3162 17.8077C23.3786 17.8077 24.2407 16.9197 24.2407 15.8238V12.7712H24.4123C24.7143 12.7712 24.9774 12.992 25.04 13.2962L29.0807 33.0432C29.2812 34.0235 29.0444 35.0316 28.4317 35.8091Z" fill="#AF209A"/>
</svg>
